Coordinates
nRows=127
nColumns=2
inDegrees=yes
endheader
time	ankle_angle_r	
2.5	 18.733433	
2.5625	 18.724895	
2.625	 18.725077	
2.6875	 18.689291	
2.75	 18.682571	
2.8125	 18.698193	
2.875	 18.683298	
2.9375	 18.680210	
3	 18.627348	
3.0625	 18.653870	
3.125	 18.668766	
3.1875	 18.600464	
3.25	 18.657139	
3.3125	 18.667675	
3.375	 18.615723	
3.4375	 18.666403	
3.5	 18.605551	
3.5625	 18.615723	
3.625	 18.665859	
3.6875	 18.615723	
3.75	 18.661499	
3.8125	 18.640245	
3.875	 18.637157	
3.9375	 18.652597	
4	 18.609182	
4.0625	 18.624260	
4.125	 18.630981	
4.1875	 18.600464	
4.25	 18.654232	
4.3125	 18.638430	
4.375	 18.646240	
4.4375	 18.677120	
4.5	 18.691290	
4.5625	 18.684933	
4.625	 18.708729	
4.6875	 18.685295	
4.75	 18.783569	
4.8125	 18.713633	
4.875	 18.722534	
4.9375	 18.753052	
5	 18.707275	
5.0625	 18.676758	
5.125	 18.702915	
5.1875	 18.651508	
5.25	 18.732706	
5.3125	 18.676758	
5.375	 18.696739	
5.4375	 18.716358	
5.5	 18.635342	
5.5625	 18.626804	
5.625	 18.630981	
5.6875	 18.604279	
5.75	 18.665133	
5.8125	 18.649693	
5.875	 18.642971	
5.9375	 18.688929	
6	 18.643333	
6.0625	 18.676758	
6.125	 18.661499	
6.1875	 18.689655	
6.25	 18.733433	
6.3125	 18.722534	
6.375	 18.751236	
6.4375	 18.739428	
6.5	 18.678211	
6.5625	 18.708548	
6.625	 18.706186	
6.6875	 18.615723	
6.75	 18.692743	
6.8125	 18.676758	
6.875	 18.645878	
6.9375	 18.661680	
7	 18.600464	
7.0625	 18.616085	
7.125	 18.646240	
7.1875	 18.615723	
7.25	 18.662226	
7.3125	 18.660591	
7.375	 18.634251	
7.4375	 18.688202	
7.5	 18.614269	
7.5625	 18.675123	
7.625	 18.659683	
7.6875	 18.676758	
7.75	 18.766130	
7.8125	 18.733070	
7.875	 18.725077	
7.9375	 18.737793	
8	 18.664406	
8.0625	 18.734705	
8.125	 18.725803	
8.1875	 18.630981	
8.25	 18.676758	
8.3125	 18.684387	
8.375	 18.661499	
8.4375	 18.669855	
8.5	 18.600464	
8.5625	 18.637157	
8.625	 18.626259	
8.6875	 18.635885	
8.75	 18.676758	
8.8125	 18.650963	
8.875	 18.630981	
8.9375	 18.651871	
9	 18.652054	
9.0625	 18.661499	
9.125	 18.682934	
9.1875	 18.683115	
9.25	 18.739973	
9.3125	 18.753052	
9.375	 18.729437	
9.4375	 18.783569	
9.5	 18.685476	
9.5625	 18.707275	
9.625	 18.737793	
9.6875	 18.684206	
9.75	 18.669491	
9.8125	 18.647329	
9.875	 18.622625	
9.9375	 18.663315	
10	 18.615723	
10.0625	 18.624624	
10.125	 18.624805	
10.1875	 18.569946	
10.25	 18.573580	
10.3125	 18.651871	
10.375	 18.626621	
